# xmcd
#
# Track frame offsets:
#	150
#	11700
#	25875
#	42375
#	57375
#	73350
#	85650
#	99075
#	112575
#	128850
#	146100
#	164550
#	177825
#	195825
#	211575
#	229800
#	248475
#	263250
#
# Disc length: 3721 seconds
#
# Revision: 1
# Processed by: cddbd v1.5.1PL2 Copyright (c) Steve Scherf et al.
# Submitted via: audiograbber 1.83.01
#
DISCID=e50e8712
DTITLE=Pioneer - P219
DYEAR=1900
DGENRE=Karaoke Country
TTITLE0=Shania Twain - Dance With The One Who Brought You
TTITLE1=Leann Rimes - Blue
TTITLE2=George Strait - Check Yes Or No
TTITLE3=Neal McCoy - No Doubt About It
TTITLE4=Mavericks - There Goes My Heart
TTITLE5=Tracy Lawrence - If The Good Die Young
TTITLE6=Tracy Lawrence - My Second Home
TTITLE7=Faith Hill - Wild One
TTITLE8=Alan Jackson - Home
TTITLE9=Patty Loveless - A Thousand Times A Day
TTITLE10=Michael Montgomery - If You've Got Love
TTITLE11=Neal McCoy - You Gotta Love That
TTITLE12=Brooks and Dunn - She Used To Be Mine
TTITLE13=Vince Gill - One More Last Chance
TTITLE14=Reba McEntire - Ring On Her Finger, Time On Her Hands
TTITLE15=Shania Twain - You Win My Love
TTITLE16=Wade Hayes - Old Enough To Know Better
TTITLE17=Pam Tillis - Cheopatra, Queen Of Denial
EXTD=
EXTT0=
EXTT1=
EXTT2=
EXTT3=
EXTT4=
EXTT5=
EXTT6=
EXTT7=
EXTT8=
EXTT9=
EXTT10=
EXTT11=
EXTT12=
EXTT13=
EXTT14=
EXTT15=
EXTT16=
EXTT17=
PLAYORDER=
